<svg xmlns="http://www.w3.org/2000/svg" viewBox="0 0 32 32" shape-rendering="crispEdges">
  <rect width="32" height="32" rx="2" fill="#0b0c1a"/>
  <rect x="4" y="4" width="2" height="2" fill="#ffe040"/>
  <rect x="6" y="6" width="2" height="2" fill="#f0c020"/>
  <rect x="8" y="8" width="2" height="2" fill="#f0c020"/>
  <rect x="10" y="10" width="2" height="2" fill="#f0c020"/>
  <rect x="12" y="12" width="2" height="2" fill="#f0c020"/>
  <rect x="14" y="14" width="4" height="4" fill="#f0c020"/>
  <rect x="18" y="18" width="2" height="2" fill="#804000"/>
  <rect x="20" y="20" width="2" height="2" fill="#804000"/>
  <rect x="22" y="22" width="2" height="2" fill="#804000"/>
  <rect x="24" y="24" width="3" height="3" fill="#c07000"/>
  <rect x="26" y="4" width="2" height="2" fill="#ffe040"/>
  <rect x="24" y="6" width="2" height="2" fill="#f0c020"/>
  <rect x="22" y="8" width="2" height="2" fill="#f0c020"/>
  <rect x="20" y="10" width="2" height="2" fill="#f0c020"/>
  <rect x="18" y="12" width="2" height="2" fill="#f0c020"/>
  <rect x="12" y="18" width="2" height="2" fill="#804000"/>
  <rect x="10" y="20" width="2" height="2" fill="#804000"/>
  <rect x="8" y="22" width="2" height="2" fill="#804000"/>
  <rect x="5" y="24" width="3" height="3" fill="#c07000"/>
</svg>
